<svg width="60" height="60" viewBox="0 0 60 60" fill="none" xmlns="http://www.w3.org/2000/svg">
<path d="M7.5 21.666V15.3327C7.5 14.4438 7.88889 13.6105 8.66667 12.8327C9.44445 12.0549 10.2778 11.666 11.1667 11.666H39.5C40.0556 11.666 40.5556 11.7771 41 11.9993L46.6667 7.16602C44.2222 5.49935 41.8333 4.66602 39.5 4.66602H11.1667C8.05556 4.66602 5.5 5.66602 3.5 7.66602C1.5 9.66602 0.5 12.2216 0.5 15.3327V43.666C0.5 46.5549 1.52778 49.0549 3.58333 51.166C5.63889 53.2771 8.16667 54.3327 11.1667 54.3327H39.5C42.5 54.3327 45.0278 53.2771 47.0833 51.166C49.1389 49.0549 50.1667 46.5549 50.1667 43.666V31.9993L43.1667 38.3327V43.666C43.1667 44.5549 42.7778 45.3882 42 46.166C41.2222 46.9438 40.3889 47.3327 39.5 47.3327H11.1667C10.2778 47.3327 9.44445 46.9438 8.66667 46.166C7.88889 45.3882 7.5 44.5549 7.5 43.666V21.666ZM59.8333 14.4993L54.8333 8.83268L50.1667 13.4993L43.1667 19.4993L29.6667 31.3327L21 20.3327L15.3333 24.4993L28.1667 41.9994L43.1667 28.8327L50.1667 22.666L59.8333 14.4993Z" fill="#517DF8"/>
</svg>
