<svg width="16" height="18" viewBox="0 0 16 18" fill="none" xmlns="http://www.w3.org/2000/svg">
<g clip-path="url(#clip0_669_63740)">
<path d="M8.00429 4.95732C5.73286 4.95732 3.90072 6.76084 3.90072 8.99677C3.90072 11.2327 5.73286 13.0362 8.00429 13.0362C10.2757 13.0362 12.1079 11.2327 12.1079 8.99677C12.1079 6.76084 10.2757 4.95732 8.00429 4.95732ZM8.00429 11.6229C6.53644 11.6229 5.33644 10.4452 5.33644 8.99677C5.33644 7.54834 6.53286 6.3706 8.00429 6.3706C9.47572 6.3706 10.6721 7.54834 10.6721 8.99677C10.6721 10.4452 9.47215 11.6229 8.00429 11.6229ZM13.2329 4.79209C13.2329 5.31592 12.8043 5.73428 12.2757 5.73428C11.7436 5.73428 11.3186 5.3124 11.3186 4.79209C11.3186 4.27178 11.7471 3.8499 12.2757 3.8499C12.8043 3.8499 13.2329 4.27178 13.2329 4.79209ZM15.9507 5.74834C15.89 4.48623 15.5971 3.36826 14.6579 2.44717C13.7221 1.52607 12.5864 1.23779 11.3043 1.17451C9.98286 1.10068 6.02215 1.10068 4.70072 1.17451C3.42215 1.23428 2.28644 1.52256 1.34715 2.44365C0.407868 3.36474 0.118583 4.48271 0.0542968 5.74482C-0.0207031 7.0456 -0.0207031 10.9444 0.0542968 12.2452C0.115011 13.5073 0.407868 14.6253 1.34715 15.5464C2.28644 16.4675 3.41858 16.7558 4.70072 16.819C6.02215 16.8929 9.98286 16.8929 11.3043 16.819C12.5864 16.7593 13.7221 16.471 14.6579 15.5464C15.5936 14.6253 15.8864 13.5073 15.9507 12.2452C16.0257 10.9444 16.0257 7.04912 15.9507 5.74834ZM14.2436 13.6409C13.965 14.33 13.4257 14.8608 12.7221 15.1386C11.6686 15.5499 9.16858 15.455 8.00429 15.455C6.84001 15.455 4.33644 15.5464 3.28644 15.1386C2.58644 14.8643 2.04715 14.3335 1.76501 13.6409C1.34715 12.6038 1.44358 10.1429 1.44358 8.99677C1.44358 7.85068 1.35072 5.38623 1.76501 4.35263C2.04358 3.66357 2.58287 3.13271 3.28644 2.85498C4.34001 2.44365 6.84001 2.53857 8.00429 2.53857C9.16858 2.53857 11.6721 2.44717 12.7221 2.85498C13.4221 3.1292 13.9614 3.66006 14.2436 4.35263C14.6614 5.38974 14.565 7.85068 14.565 8.99677C14.565 10.1429 14.6614 12.6073 14.2436 13.6409Z" fill="white"/>
</g>
<defs>
<clipPath id="clip0_669_63740">
<rect width="16" height="18" fill="white"/>
</clipPath>
</defs>
</svg>
