<svg width="24" height="32" viewBox="0 0 24 32" fill="none" xmlns="http://www.w3.org/2000/svg">
<g clip-path="url(#clip0_669_63729)">
<path d="M10.5605 30.875C7.38867 26.9043 0.333984 17.2806 0.333984 11.875C0.333984 5.31654 5.55725 0 12.0007 0C18.4416 0 23.6673 5.31654 23.6673 11.875C23.6673 17.2806 16.5579 26.9043 13.4408 30.875C12.6934 31.8213 11.3079 31.8213 10.5605 30.875ZM12.0007 15.8333C14.1456 15.8333 15.8895 14.0583 15.8895 11.875C15.8895 9.69173 14.1456 7.91667 12.0007 7.91667C9.85569 7.91667 8.11176 9.69173 8.11176 11.875C8.11176 14.0583 9.85569 15.8333 12.0007 15.8333Z" fill="white"/>
</g>
<defs>
<clipPath id="clip0_669_63729">
<rect width="23.3333" height="31.6667" fill="white" transform="translate(0.333984)"/>
</clipPath>
</defs>
</svg>
