<svg width="40" height="40" viewBox="0 0 40 40" fill="none" xmlns="http://www.w3.org/2000/svg">
<path d="M7.74047 8H34.2405C36.7405 8 38.0005 9.18 38.0005 11.58V28.42C38.0005 30.8 36.7405 32 34.2405 32H7.74047C5.24047 32 3.98047 30.8 3.98047 28.42V11.58C3.98047 9.18 5.24047 8 7.74047 8ZM20.9805 25.2L34.4605 14.14C34.9405 13.74 35.3205 12.82 34.7205 12C34.1405 11.18 33.0805 11.16 32.3805 11.66L20.9805 19.38L9.60047 11.66C8.90047 11.16 7.84047 11.18 7.26047 12C6.66047 12.82 7.04047 13.74 7.52047 14.14L20.9805 25.2Z" fill="white"/>
</svg>
