<svg width="40" height="40" viewBox="0 0 40 40" fill="none" xmlns="http://www.w3.org/2000/svg">
<path d="M11.0333 17.9833C13.4333 22.7 17.3 26.5667 22.0167 28.9667L25.6833 25.3C26.15 24.8333 26.8 24.7 27.3833 24.8833C29.25 25.5 31.25 25.8333 33.3333 25.8333C33.7754 25.8333 34.1993 26.0089 34.5118 26.3215C34.8244 26.634 35 27.058 35 27.5V33.3333C35 33.7754 34.8244 34.1993 34.5118 34.5118C34.1993 34.8244 33.7754 35 33.3333 35C25.8189 35 18.6122 32.0149 13.2986 26.7014C7.98511 21.3878 5 14.1811 5 6.66667C5 6.22464 5.17559 5.80072 5.48816 5.48816C5.80072 5.17559 6.22464 5 6.66667 5H12.5C12.942 5 13.366 5.17559 13.6785 5.48816C13.9911 5.80072 14.1667 6.22464 14.1667 6.66667C14.1667 8.75 14.5 10.75 15.1167 12.6167C15.3 13.2 15.1667 13.85 14.7 14.3167L11.0333 17.9833Z" fill="white"/>
</svg>
