<svg width="160" height="160" viewBox="0 0 160 160" fill="none" xmlns="http://www.w3.org/2000/svg">
<g clip-path="url(#clip0_669_63559)">
<path d="M64.45 116.88V63.54H58.12C53.5864 65.9567 49.2049 68.6484 45 71.6V78.55C48.75 75.98 54.69 72.35 57.58 70.78H57.7V116.88H64.45ZM76.33 103.83C76.8 110.23 82.27 117.89 93.36 117.89C105.94 117.89 113.36 107.23 113.36 89.18C113.36 69.84 105.55 62.5 93.83 62.5C84.57 62.5 75.86 69.22 75.86 80.59C75.86 92.19 84.1 98.29 92.62 98.29C100.08 98.29 104.92 94.53 106.45 90.39H106.72C106.68 103.55 102.11 112.03 93.67 112.03C87.03 112.03 83.59 107.53 83.17 103.83H76.33ZM105.86 80.66C105.86 87.62 100.27 92.46 94.02 92.46C88.01 92.46 82.58 88.63 82.58 80.46C82.58 72.23 88.4 68.36 94.26 68.36C100.59 68.36 105.86 72.34 105.86 80.66Z" fill="#517DF8"/>
<path d="M35 0C36.3261 0 37.5979 0.526784 38.5355 1.46447C39.4732 2.40215 40 3.67392 40 5V10H120V5C120 3.67392 120.527 2.40215 121.464 1.46447C122.402 0.526784 123.674 0 125 0C126.326 0 127.598 0.526784 128.536 1.46447C129.473 2.40215 130 3.67392 130 5V10H140C145.304 10 150.391 12.1071 154.142 15.8579C157.893 19.6086 160 24.6957 160 30V140C160 145.304 157.893 150.391 154.142 154.142C150.391 157.893 145.304 160 140 160H20C14.6957 160 9.60859 157.893 5.85786 154.142C2.10714 150.391 0 145.304 0 140V30C0 24.6957 2.10714 19.6086 5.85786 15.8579C9.60859 12.1071 14.6957 10 20 10H30V5C30 3.67392 30.5268 2.40215 31.4645 1.46447C32.4021 0.526784 33.6739 0 35 0ZM10 40V140C10 142.652 11.0536 145.196 12.9289 147.071C14.8043 148.946 17.3478 150 20 150H140C142.652 150 145.196 148.946 147.071 147.071C148.946 145.196 150 142.652 150 140V40H10Z" fill="#517DF8"/>
</g>
<defs>
<clipPath id="clip0_669_63559">
<rect width="160" height="160" fill="white"/>
</clipPath>
</defs>
</svg>
