<svg width="170" height="170" viewBox="0 0 170 170" fill="none" xmlns="http://www.w3.org/2000/svg">
<path d="M141.667 127.499C149.458 127.499 155.762 121.124 155.762 113.332L155.833 42.4987C155.833 34.707 149.458 28.332 141.667 28.332H28.3333C20.5417 28.332 14.1667 34.707 14.1667 42.4987V113.332C14.1667 121.124 20.5417 127.499 28.3333 127.499H7.08333C3.1875 127.499 0 130.686 0 134.582C0 138.478 3.1875 141.665 7.08333 141.665H162.917C166.812 141.665 170 138.478 170 134.582C170 130.686 166.812 127.499 162.917 127.499H141.667ZM35.4167 42.4987H134.583C138.479 42.4987 141.667 45.6862 141.667 49.582V106.249C141.667 110.145 138.479 113.332 134.583 113.332H35.4167C31.5208 113.332 28.3333 110.145 28.3333 106.249V49.582C28.3333 45.6862 31.5208 42.4987 35.4167 42.4987Z" fill="#517DF8"/>
</svg>
