<svg width="160" height="160" viewBox="0 0 160 160" fill="none" xmlns="http://www.w3.org/2000/svg">
<path d="M145 35H120V26.25C120 25.5625 119.438 25 118.75 25H110C109.312 25 108.75 25.5625 108.75 26.25V35H85.625V26.25C85.625 25.5625 85.0625 25 84.375 25H75.625C74.9375 25 74.375 25.5625 74.375 26.25V35H51.25V26.25C51.25 25.5625 50.6875 25 50 25H41.25C40.5625 25 40 25.5625 40 26.25V35H15C12.2344 35 10 37.2344 10 40V130C10 132.766 12.2344 135 15 135H145C147.766 135 150 132.766 150 130V40C150 37.2344 147.766 35 145 35ZM138.75 123.75H21.25V46.25H40V55C40 55.6875 40.5625 56.25 41.25 56.25H50C50.6875 56.25 51.25 55.6875 51.25 55V46.25H74.375V55C74.375 55.6875 74.9375 56.25 75.625 56.25H84.375C85.0625 56.25 85.625 55.6875 85.625 55V46.25H108.75V55C108.75 55.6875 109.312 56.25 110 56.25H118.75C119.438 56.25 120 55.6875 120 55V46.25H138.75V123.75ZM65 77.5H36.25C35.5625 77.5 35 78.0625 35 78.75V86.25C35 86.9375 35.5625 87.5 36.25 87.5H65C65.6875 87.5 66.25 86.9375 66.25 86.25V78.75C66.25 78.0625 65.6875 77.5 65 77.5ZM65 98.75H36.25C35.5625 98.75 35 99.3125 35 100V107.5C35 108.188 35.5625 108.75 36.25 108.75H65C65.6875 108.75 66.25 108.188 66.25 107.5V100C66.25 99.3125 65.6875 98.75 65 98.75ZM113.156 71.0312L96.9688 93.4844L88.7188 82.0625C88.25 81.4063 87.5 81.0312 86.7031 81.0312H78.125C77.1094 81.0312 76.5156 82.1875 77.1094 83.0156L94.9375 107.734C95.1677 108.054 95.4705 108.314 95.8209 108.493C96.1713 108.673 96.5594 108.766 96.9531 108.766C97.3468 108.766 97.7349 108.673 98.0854 108.493C98.4358 108.314 98.7386 108.054 98.9688 107.734L124.75 72C125.344 71.1719 124.75 70.0156 123.734 70.0156H115.156C114.375 70 113.625 70.3906 113.156 71.0312Z" fill="#517DF8"/>
</svg>
