<svg width="170" height="170" viewBox="0 0 170 170" fill="none" xmlns="http://www.w3.org/2000/svg">
<path d="M84.9993 4.53125L58.2952 21.2479H35.416V35.4146L21.0368 44.5521C16.9285 47.0312 14.166 51.4937 14.166 56.6646V127.498C14.166 131.255 15.6586 134.858 18.3153 137.515C20.9721 140.172 24.5754 141.665 28.3327 141.665H141.666C149.529 141.665 155.833 135.36 155.833 127.498V56.6646C155.833 51.4937 153.07 47.0312 148.962 44.5521L134.583 35.4146V21.2479H111.704M49.5827 35.4146H120.416V69.9812L84.9993 92.0812L49.5827 69.9812M56.666 42.4979V53.1229H113.333V42.4979M35.416 52.2729V61.1271L28.3327 56.6646M134.583 52.2729L141.666 56.6646L134.583 61.1271M56.666 60.2062V70.8312H113.333V60.2062H56.666Z" fill="#517DF8"/>
</svg>
