<svg width="160" height="160" viewBox="0 0 160 160" fill="none" xmlns="http://www.w3.org/2000/svg">
<path d="M138.067 24.3621C138.067 24.3621 151.017 19.3121 149.934 31.5754C149.577 36.6254 146.34 54.3021 143.82 73.4188L135.187 130.052C135.187 130.052 134.467 138.349 127.99 139.792C121.517 141.232 111.804 134.742 110.004 133.299C108.564 132.215 83.0237 115.982 74.0304 108.049C71.5104 105.882 68.6304 101.555 74.3904 96.5054L112.16 60.4321C116.477 56.1054 120.794 46.0054 102.807 58.2688L52.4404 92.5354C52.4404 92.5354 46.6837 96.1454 35.8937 92.8988L12.5071 85.6821C12.5071 85.6821 3.87374 80.2721 18.6237 74.8621C54.6004 57.9088 98.8504 40.5954 138.06 24.3621H138.067Z" fill="#517DF8"/>
</svg>
