<svg width="160" height="160" viewBox="0 0 160 160" fill="none" xmlns="http://www.w3.org/2000/svg">
<g clip-path="url(#clip0_669_63538)">
<path d="M160 99.9985V159.999H80V99.9985H100V79.9985H140V99.9985H160ZM110 99.9985H130V89.9985H110V99.9985ZM150 129.999H140V139.999H130V129.999H110V139.999H100V129.999H90V149.999H150V129.999ZM150 109.999H90V119.999H150V109.999ZM122.266 69.9985C119.453 66.8214 116.12 64.3735 112.266 62.6548C108.411 60.936 104.323 60.0506 100 59.9985C95.8333 59.9985 91.9531 60.7798 88.3594 62.3423C84.7656 63.9048 81.5885 66.0402 78.8281 68.7485C76.0677 71.4569 73.9062 74.66 72.3438 78.3579C70.7812 82.0558 70 85.936 70 89.9985C70 94.7902 68.9323 99.2954 66.7969 103.514C64.6615 107.733 61.6406 111.275 57.7344 114.139C60.0781 115.337 62.2656 116.717 64.2969 118.28C66.3281 119.842 68.2292 121.613 70 123.592V149.999C70 145.884 69.2188 142.004 67.6562 138.358C66.0938 134.712 63.9583 131.535 61.25 128.827C58.5417 126.118 55.3385 123.957 51.6406 122.342C47.9427 120.728 44.0625 119.946 40 119.999C35.8333 119.999 31.9531 120.78 28.3594 122.342C24.7656 123.905 21.5885 126.04 18.8281 128.749C16.0677 131.457 13.9062 134.66 12.3438 138.358C10.7812 142.056 10 145.936 10 149.999H0C0 146.196 0.520833 142.525 1.5625 138.983C2.60417 135.441 4.08854 132.082 6.01562 128.905C7.94271 125.728 10.2865 122.915 13.0469 120.467C15.8073 118.019 18.8802 115.91 22.2656 114.139C18.4115 111.327 15.4167 107.811 13.2812 103.592C11.1458 99.3735 10.0521 94.8423 10 89.9985C10 85.8839 10.7812 82.0037 12.3438 78.3579C13.9062 74.7121 16.0417 71.535 18.75 68.8267C21.4583 66.1183 24.6354 63.9569 28.2812 62.3423C31.9271 60.7277 35.8333 59.9465 40 59.9985C44.7917 59.9985 49.2969 61.0662 53.5156 63.2017C57.7344 65.3371 61.276 68.3579 64.1406 72.2642C66.1198 68.3579 68.6458 64.8683 71.7188 61.7954C74.7917 58.7225 78.3073 56.1704 82.2656 54.1392C78.4115 51.3267 75.4167 47.811 73.2812 43.5923C71.1458 39.3735 70.0521 34.8423 70 29.9985C70 25.884 70.7812 22.0037 72.3438 18.3579C73.9062 14.7121 76.0417 11.535 78.75 8.82666C81.4583 6.11833 84.6354 3.95687 88.2812 2.34229C91.9271 0.727702 95.8333 -0.0535482 100 -0.00146484C104.115 -0.00146484 107.995 0.779785 111.641 2.34229C115.286 3.90479 118.464 6.0402 121.172 8.74854C123.88 11.4569 126.042 14.66 127.656 18.3579C129.271 22.0558 130.052 25.936 130 29.9985C130 34.7902 128.932 39.2954 126.797 43.5142C124.661 47.7329 121.641 51.2746 117.734 54.1392C121.276 55.91 124.479 58.1235 127.344 60.7798C130.208 63.436 132.63 66.5089 134.609 69.9985H122.266ZM40 109.999C42.7604 109.999 45.3385 109.478 47.7344 108.436C50.1302 107.394 52.2656 105.962 54.1406 104.139C56.0156 102.316 57.4479 100.207 58.4375 97.811C59.4271 95.4152 59.9479 92.811 60 89.9985C60 87.2381 59.4792 84.66 58.4375 82.2642C57.3958 79.8683 55.9635 77.7329 54.1406 75.8579C52.3177 73.9829 50.2083 72.5506 47.8125 71.561C45.4167 70.5714 42.8125 70.0506 40 69.9985C37.2396 69.9985 34.6615 70.5194 32.2656 71.561C29.8698 72.6027 27.7344 74.035 25.8594 75.8579C23.9844 77.6808 22.5521 79.7902 21.5625 82.186C20.5729 84.5819 20.0521 87.186 20 89.9985C20 92.7589 20.5208 95.3371 21.5625 97.7329C22.6042 100.129 24.0365 102.264 25.8594 104.139C27.6823 106.014 29.7917 107.446 32.1875 108.436C34.5833 109.426 37.1875 109.946 40 109.999ZM80 29.9985C80 32.759 80.5208 35.3371 81.5625 37.7329C82.6042 40.1287 84.0365 42.2642 85.8594 44.1392C87.6823 46.0142 89.7917 47.4465 92.1875 48.436C94.5833 49.4256 97.1875 49.9465 100 49.9985C102.76 49.9985 105.339 49.4777 107.734 48.436C110.13 47.3944 112.266 45.9621 114.141 44.1392C116.016 42.3162 117.448 40.2069 118.438 37.811C119.427 35.4152 119.948 32.811 120 29.9985C120 27.2381 119.479 24.66 118.438 22.2642C117.396 19.8683 115.964 17.7329 114.141 15.8579C112.318 13.9829 110.208 12.5506 107.812 11.561C105.417 10.5715 102.812 10.0506 100 9.99854C97.2396 9.99854 94.6615 10.5194 92.2656 11.561C89.8698 12.6027 87.7344 14.035 85.8594 15.8579C83.9844 17.6808 82.5521 19.7902 81.5625 22.186C80.5729 24.5819 80.0521 27.186 80 29.9985Z" fill="#517DF8"/>
</g>
<defs>
<clipPath id="clip0_669_63538">
<rect width="160" height="160" fill="white"/>
</clipPath>
</defs>
</svg>
