<svg width="160" height="160" viewBox="0 0 160 160" fill="none" xmlns="http://www.w3.org/2000/svg">
<path d="M126.667 26.6654H120V13.332H106.667V26.6654H53.3333V13.332H40V26.6654H33.3333C25.9333 26.6654 20.0667 32.6654 20.0667 39.9987L20 133.332C20 136.868 21.4048 140.26 23.9052 142.76C26.4057 145.261 29.7971 146.665 33.3333 146.665H126.667C134 146.665 140 140.665 140 133.332V39.9987C140 32.6654 134 26.6654 126.667 26.6654ZM126.667 133.332H33.3333V66.6654H126.667V133.332ZM60 93.332H46.6667V79.9987H60V93.332ZM86.6667 93.332H73.3333V79.9987H86.6667V93.332ZM113.333 93.332H100V79.9987H113.333V93.332ZM60 119.999H46.6667V106.665H60V119.999ZM86.6667 119.999H73.3333V106.665H86.6667V119.999ZM113.333 119.999H100V106.665H113.333V119.999Z" fill="#517DF8"/>
</svg>
