<svg width="160" height="160" viewBox="0 0 160 160" fill="none" xmlns="http://www.w3.org/2000/svg">
<g clip-path="url(#clip0_669_63548)">
<path d="M79.4215 -0.191134C79.1613 -0.144139 78.9044 -0.0804168 78.6523 -0.000364885C77.263 0.31103 76.0246 1.09455 75.1482 2.21667C74.2719 3.3388 73.8117 4.7301 73.8462 6.15348V12.3073H18.4615C13.5652 12.3073 8.86947 14.2524 5.40726 17.7146C1.94505 21.1768 0 25.8726 0 30.7689L0 110.769C0 120.96 8.27077 129.23 18.4615 129.23H73.8462V131.538L40.3815 148.27C38.9029 148.984 37.7684 150.257 37.2277 151.807C36.687 153.358 36.7844 155.059 37.4985 156.538C38.2125 158.017 39.4847 159.151 41.0352 159.692C42.5857 160.233 44.2875 160.135 45.7662 159.421L73.8462 145.384V147.692C73.8462 149.324 74.4945 150.889 75.6486 152.043C76.8026 153.197 78.3679 153.846 80 153.846C81.6321 153.846 83.1974 153.197 84.3514 152.043C85.5055 150.889 86.1538 149.324 86.1538 147.692V145.384L114.234 159.421C115.713 160.135 117.414 160.233 118.965 159.692C120.515 159.151 121.787 158.017 122.502 156.538C123.216 155.059 123.313 153.358 122.772 151.807C122.232 150.257 121.097 148.984 119.618 148.27L86.1538 131.538V129.23H141.538C151.729 129.23 160 120.96 160 110.769V30.7689C160 25.8726 158.055 21.1768 154.593 17.7146C151.131 14.2524 146.435 12.3073 141.538 12.3073H86.1538V6.15348C86.1849 5.27839 86.0289 4.40675 85.6962 3.59678C85.3634 2.78682 84.8617 2.05718 84.2244 1.45663C83.5872 0.85608 82.8291 0.398439 82.0009 0.114284C81.1726 -0.169871 80.2933 -0.273996 79.4215 -0.191134ZM12.3077 30.7689H147.692V110.769H12.3077V30.7689ZM128.462 36.9227C127.083 37.0709 125.795 37.6802 124.806 38.6519L104.615 58.8489L90.5785 44.7996C89.9062 44.1099 89.0815 43.5875 88.1705 43.2746C87.2596 42.9617 86.288 42.867 85.3338 42.9981C84.3795 43.1292 83.4694 43.4824 82.6767 44.0294C81.8839 44.5764 81.2305 45.3018 80.7692 46.1473L62.4985 78.0735L54.9969 59.2242C54.6327 58.251 54.0279 57.3859 53.2389 56.7095C52.45 56.0331 51.5026 55.5676 50.4852 55.3562C49.4677 55.1449 48.4133 55.1946 47.4203 55.5008C46.4272 55.807 45.5279 56.3597 44.8062 57.1073L26.3446 75.5689C25.7628 76.1503 25.3011 76.8407 24.9861 77.6005C24.671 78.3604 24.5087 79.1749 24.5084 79.9975C24.5081 80.82 24.6699 81.6346 24.9844 82.3947C25.2989 83.1548 25.7601 83.8455 26.3415 84.4273C26.923 85.0092 27.6134 85.4708 28.3732 85.7859C29.1331 86.1009 29.9475 86.2632 30.7701 86.2635C31.5927 86.2638 32.4073 86.1021 33.1674 85.7875C33.9275 85.473 34.6181 85.0119 35.2 84.4304L46.9292 72.7012L55.7785 94.6212C56.1961 95.7205 56.92 96.6772 57.8645 97.3779C58.8089 98.0786 59.9344 98.494 61.1076 98.5749C62.2808 98.6559 63.4527 98.3989 64.4844 97.8345C65.5162 97.2702 66.3646 96.422 66.9292 95.3904L87.5077 59.4273L100.197 72.1227C100.771 72.7164 101.458 73.1885 102.218 73.511C102.979 73.8334 103.796 73.9996 104.622 73.9996C105.447 73.9996 106.265 73.8334 107.025 73.511C107.785 73.1885 108.472 72.7164 109.046 72.1227L133.662 47.5073C134.634 46.6074 135.289 45.4177 135.531 44.1153C135.773 42.8128 135.588 41.4671 135.004 40.2781C134.42 39.0891 133.468 38.1203 132.289 37.5158C131.11 36.9113 129.768 36.7033 128.462 36.9227Z" fill="#517DF8"/>
</g>
<defs>
<clipPath id="clip0_669_63548">
<rect width="160" height="160" fill="white"/>
</clipPath>
</defs>
</svg>
